<svg id="Layer_1" data-name="Layer 1" xmlns="http://www.w3.org/2000/svg" viewBox="0 0 419 419"><defs><style>.cls-1{fill:#274082;stroke:#000;stroke-miterlimit:10;}</style></defs><title>ITS Risk Guardian - Blue Gear</title><path class="cls-1" d="M471.54,327.81,506.23,335a207.7,207.7,0,0,0,12.49-30.08l-29.56-19.44a174.23,174.23,0,0,0,4.47-22.5l34.75-6.65q.62-8.06.63-16.29t-.63-16.29l-34.75-6.65a174.23,174.23,0,0,0-4.47-22.5l29.56-19.44A207.71,207.71,0,0,0,506.23,145l-34.68,7.16a175.41,175.41,0,0,0-12.76-19l19.86-29.26a210.28,210.28,0,0,0-23.12-23l-29.29,19.88a175.39,175.39,0,0,0-18.95-12.63l7.15-34.64a207.67,207.67,0,0,0-30.21-12.44L364.77,70.66a174.27,174.27,0,0,0-22.22-4.34L335.9,31.6Q328,31,320,31q-8.52,0-16.86.68l-6.66,34.78a174.23,174.23,0,0,0-22.05,4.43L255,41.33a207.71,207.71,0,0,0-30.29,12.62l7.16,34.71a175.42,175.42,0,0,0-18.54,12.48L184,81.27a210.26,210.26,0,0,0-23.22,23.3l19.88,29.3a175.39,175.39,0,0,0-12.35,18.5l-34.67-7.16a207.69,207.69,0,0,0-12.57,30.42L150.7,195.1a174.23,174.23,0,0,0-4.3,21.78l-34.76,6.65Q111,231.68,111,240t.64,16.47l34.76,6.65a174.24,174.24,0,0,0,4.3,21.78l-29.59,19.46a207.69,207.69,0,0,0,12.57,30.42l34.67-7.16a175.39,175.39,0,0,0,12.35,18.5l-19.88,29.3A210.26,210.26,0,0,0,184,398.73l29.27-19.86a175.42,175.42,0,0,0,18.54,12.48l-7.16,34.71A207.71,207.71,0,0,0,255,438.67l19.44-29.56a174.23,174.23,0,0,0,22.05,4.43l6.66,34.78q8.35.67,16.86.68,8,0,15.9-.6l6.65-34.72a174.27,174.27,0,0,0,22.22-4.34l19.46,29.59a207.68,207.68,0,0,0,30.21-12.44l-7.15-34.64a175.39,175.39,0,0,0,18.95-12.63l29.29,19.88a210.26,210.26,0,0,0,23.12-23l-19.86-29.26A175.41,175.41,0,0,0,471.54,327.81Z" transform="translate(-110.5 -30.5)"/></svg>