<svg id="Layer_1" data-name="Layer 1" xmlns="http://www.w3.org/2000/svg" viewBox="0 0 381.75 325.05"><defs><style>.cls-1{fill:none;}.cls-2{fill:#274082;stroke:#274082;stroke-miterlimit:10;}.cls-3{fill:#fdffff;}</style></defs><title>ITS Risk Guardian - light</title><path class="cls-1" d="M439,272l20.79,13.68A146.09,146.09,0,0,1,451,306.79l-24.39-5a123.38,123.38,0,0,1-9,13.35l14,20.58a147.89,147.89,0,0,1-16.26,16.2l-20.6-14a123.36,123.36,0,0,1-13.32,8.89l5,24.36a146.07,146.07,0,0,1-21.25,8.75L351.49,359.1a122.57,122.57,0,0,1-15.63,3.06l-.72,3.76a87.56,87.56,0,1,0,122-112.66l-15,2.88A122.55,122.55,0,0,1,439,272Z" transform="translate(-120.8 -92.5)"/><path class="cls-1" d="M120.8,215a67.19,67.19,0,0,0,64.1,67.12l16-10.53a122.55,122.55,0,0,1-3-15.32l-24.45-4.68Q173,245.85,173,240t.45-11.59l24.45-4.68a122.55,122.55,0,0,1,3-15.32l-20.81-13.69a146.08,146.08,0,0,1,8.84-21.4l24.38,5a123.34,123.34,0,0,1,8.69-13l-8.49-12.51A67.21,67.21,0,0,0,120.8,215Z" transform="translate(-120.8 -92.5)"/><path class="cls-2" d="M327.45,330a87.23,87.23,0,0,0,7.68,35.92l.72-3.76a122.57,122.57,0,0,0,15.63-3.06l13.69,20.81a146.07,146.07,0,0,0,21.25-8.75l-5-24.36a123.36,123.36,0,0,0,13.32-8.89l20.6,14a147.89,147.89,0,0,0,16.26-16.2l-14-20.58a123.38,123.38,0,0,0,9-13.35l24.39,5a146.09,146.09,0,0,0,8.79-21.16L439,272a122.55,122.55,0,0,0,3.14-15.83l15-2.88A87.57,87.57,0,0,0,327.45,330Z" transform="translate(-120.8 -92.5)"/><path class="cls-2" d="M213.34,178.36l-24.38-5a146.08,146.08,0,0,0-8.84,21.4l20.81,13.69a122.55,122.55,0,0,0-3,15.32l-24.45,4.68Q173,234.15,173,240t.45,11.59l24.45,4.68a122.55,122.55,0,0,0,3,15.32l-16,10.53c1,0,2.05.08,3.09.08a67.2,67.2,0,0,0,25.54-129.36L222,165.35A123.34,123.34,0,0,0,213.34,178.36Z" transform="translate(-120.8 -92.5)"/><path class="cls-2" d="M199.22,301.42l-.62,3.25L212,301.91l-1.74-2.65A86.72,86.72,0,0,1,199.22,301.42Z" transform="translate(-120.8 -92.5)"/><path class="cls-2" d="M316.07,386.94l.7,0-.09-.15Z" transform="translate(-120.8 -92.5)"/><path class="cls-2" d="M302.45,345l-22.53-4.31q-.41-5.29-.42-10.68t.42-10.68L302.45,315a112.94,112.94,0,0,1,2.79-14.12l-19.18-12.62a134.64,134.64,0,0,1,8.15-19.72l22.48,4.64a113.7,113.7,0,0,1,8-12l-12.89-19a136.32,136.32,0,0,1,15.05-15.11l19,12.88a113.74,113.74,0,0,1,12-8.09l-4.65-22.5a134.67,134.67,0,0,1,19.64-8.18l12.6,19.16a113,113,0,0,1,14.3-2.87l4.32-22.55q5.41-.43,10.93-.44,5.2,0,10.31.39l4.31,22.51a112.73,112.73,0,0,1,11.86,2.19q-1-5.87-2.5-11.55l20.79-13.68A146.09,146.09,0,0,0,451,173.21l-24.39,5a123.38,123.38,0,0,0-9-13.35l14-20.58a147.91,147.91,0,0,0-16.26-16.2l-20.6,14a123.36,123.36,0,0,0-13.32-8.89l5-24.36a146.06,146.06,0,0,0-21.25-8.75L351.49,120.9a122.57,122.57,0,0,0-15.63-3.06l-4.67-24.42Q325.64,93,320,93q-6,0-11.86.48l-4.68,24.46a122.54,122.54,0,0,0-15.51,3.11l-13.67-20.79A146.09,146.09,0,0,0,253,109.14l5,24.41a123.37,123.37,0,0,0-13,8.77l-12.38-8.41-1.14,5.52a87.27,87.27,0,0,1,9.43,6.29l14.57-9.89a104.63,104.63,0,0,1,11.5,11.46l-9.88,14.56a87.29,87.29,0,0,1,6.35,9.45l17.26-3.56a103.36,103.36,0,0,1,6.22,15l-14.71,9.68a86.7,86.7,0,0,1,2.22,11.2l17.29,3.31q.31,4,.31,8.1t-.31,8.1l-17.29,3.31a86.7,86.7,0,0,1-2.22,11.2l14.71,9.68a103.35,103.35,0,0,1-6.22,15l-17.26-3.56a87.28,87.28,0,0,1-6.35,9.45l9.88,14.56a104.63,104.63,0,0,1-11.5,11.46l-14.57-9.89a87.27,87.27,0,0,1-9.43,6.29L235,307.8a103.29,103.29,0,0,1-13.78,5.76c.27.36.53.73.81,1.09l-14,20.6a147.88,147.88,0,0,0,16.33,16.39l20.58-14a123.39,123.39,0,0,0,13,8.77l-5,24.41a146.1,146.1,0,0,0,21.31,8.88l13.67-20.79a122.59,122.59,0,0,0,13.32,2.78l4-2.62A113,113,0,0,1,302.45,345Z" transform="translate(-120.8 -92.5)"/><path class="cls-3" d="M303.46,362.06c-.74-.1-1.46-.22-2.2-.33l-15.2,10a134.65,134.65,0,0,0,8.15,19.72l21.86-4.51q-4-.11-7.93-.42Z" transform="translate(-120.8 -92.5)"/><path class="cls-3" d="M331.18,386.58l4-20.66a87.57,87.57,0,0,1,122-112.66l9.4-1.8q.44-5.67.44-11.46t-.44-11.46l-24.44-4.68c-.19-1.44-.4-2.86-.64-4.28a112.73,112.73,0,0,0-11.86-2.19l-4.31-22.51q-5.1-.38-10.31-.39-5.52,0-10.93.44l-4.32,22.55a113,113,0,0,0-14.3,2.87l-12.6-19.16a134.67,134.67,0,0,0-19.64,8.18l4.65,22.5a113.74,113.74,0,0,0-12,8.09l-19-12.88A136.32,136.32,0,0,0,311.8,242.2l12.89,19a113.7,113.7,0,0,0-8,12l-22.48-4.64a134.64,134.64,0,0,0-8.15,19.72l19.18,12.62A112.94,112.94,0,0,0,302.45,315l-22.53,4.31q-.41,5.29-.42,10.68t.42,10.68L302.45,345a113,113,0,0,0,2.79,14.12l-4,2.62c.73.11,1.46.23,2.2.33l4.68,24.46q3.94.31,7.93.42l.61-.13.09.15q1.61,0,3.23,0Q325.64,387,331.18,386.58Z" transform="translate(-120.8 -92.5)"/><path class="cls-3" d="M212,301.91,220,314l1.26-.43a123.18,123.18,0,0,1-7.88-11.92Z" transform="translate(-120.8 -92.5)"/><path class="cls-3" d="M231.44,290.56a87.27,87.27,0,0,0,9.43-6.29l14.57,9.89a104.63,104.63,0,0,0,11.5-11.46l-9.88-14.56a87.28,87.28,0,0,0,6.35-9.45l17.26,3.56a103.35,103.35,0,0,0,6.22-15l-14.71-9.68a86.7,86.7,0,0,0,2.22-11.2l17.29-3.31q.31-4,.31-8.1t-.31-8.1l-17.29-3.31a86.7,86.7,0,0,0-2.22-11.2l14.71-9.68a103.36,103.36,0,0,0-6.22-15l-17.26,3.56a87.29,87.29,0,0,0-6.35-9.45l9.88-14.56a104.63,104.63,0,0,0-11.5-11.46l-14.57,9.89a87.27,87.27,0,0,0-9.43-6.29l1.14-5.52-8.2-5.57A147.89,147.89,0,0,0,208,144.75l5.49,8.09A67.2,67.2,0,0,1,188,282.2c-1,0-2.07,0-3.09-.08l-4.79,3.15a146.08,146.08,0,0,0,8.84,21.4l9.64-2,.62-3.25a86.72,86.72,0,0,0,11.06-2.16l1.74,2.65,1.32-.27a123.18,123.18,0,0,0,7.88,11.92A103.29,103.29,0,0,0,235,307.8Z" transform="translate(-120.8 -92.5)"/></svg>