<svg id="Layer_1" data-name="Layer 1" xmlns="http://www.w3.org/2000/svg" viewBox="0 0 440 440"><defs><style>.cls-1{fill:#fdffff;}</style></defs><title>ITS Risk Guardian - White Gear</title><path class="cls-1" d="M539.34,257.14q.65-8.49.66-17.14t-.66-17.14l-36.58-7a183.4,183.4,0,0,0-4.71-23.68l31.12-20.47A218.64,218.64,0,0,0,516,140l-36.51,7.54a184.64,184.64,0,0,0-13.43-20L487,96.79a221.35,221.35,0,0,0-24.33-24.25L431.83,93.46a184.63,184.63,0,0,0-19.94-13.3l7.53-36.46a218.6,218.6,0,0,0-31.8-13.1L367.12,61.75a183.45,183.45,0,0,0-23.39-4.57l-7-36.55Q328.45,20,320,20q-9,0-17.75.71l-7,36.61A183.4,183.4,0,0,0,272,62L251.56,30.87a218.64,218.64,0,0,0-31.89,13.29l7.54,36.53A184.65,184.65,0,0,0,207.7,93.82L176.89,72.92a221.33,221.33,0,0,0-24.44,24.53l20.93,30.84a184.62,184.62,0,0,0-13,19.48l-36.49-7.53a218.62,218.62,0,0,0-13.23,32l31.14,20.48a183.4,183.4,0,0,0-4.53,22.93l-36.59,7Q100,231.24,100,240t.68,17.34l36.59,7a183.41,183.41,0,0,0,4.53,22.93l-31.14,20.48a218.62,218.62,0,0,0,13.23,32l36.49-7.53a184.62,184.62,0,0,0,13,19.48l-20.93,30.84a221.33,221.33,0,0,0,24.44,24.53l30.81-20.91a184.65,184.65,0,0,0,19.52,13.13l-7.54,36.53a218.64,218.64,0,0,0,31.89,13.29L272,418a183.4,183.4,0,0,0,23.22,4.66l7,36.61Q311,460,320,460q8.44,0,16.73-.63l7-36.55a183.45,183.45,0,0,0,23.39-4.57l20.49,31.15a218.61,218.61,0,0,0,31.8-13.1l-7.53-36.46a184.63,184.63,0,0,0,19.94-13.3l30.83,20.92A221.33,221.33,0,0,0,487,383.21l-20.9-30.8a184.64,184.64,0,0,0,13.43-20L516,340a218.64,218.64,0,0,0,13.15-31.67l-31.12-20.47a183.4,183.4,0,0,0,4.71-23.68ZM320,382.15A142.15,142.15,0,1,1,462.15,240,142.15,142.15,0,0,1,320,382.15Z" transform="translate(-100 -20)"/></svg>