<svg id="Layer_1" data-name="Layer 1" xmlns="http://www.w3.org/2000/svg" viewBox="0 0 141.05 34.39"><defs><style>.cls-1{fill:red;}.cls-2{fill:#333;}.cls-3{fill:#29abe2;}</style></defs><title>Logo RBITS</title><rect class="cls-1" x="23.29" y="8.4" width="12.13" height="6.12"/><path class="cls-1" d="M51.9,49H45.78a1.69,1.69,0,0,1-1.69,1.69H19.69V66.32h7.44v-9.5h8.82l9.5,9.5H54.1L44.58,56.8A7.81,7.81,0,0,0,51.9,49Z" transform="translate(-19.47 -32.8)"/><path class="cls-1" d="M21.06,48.81a1.58,1.58,0,0,0,1.58-1.49h14a1.58,1.58,0,0,0,3.16,0h0V41.2h0a1.58,1.58,0,0,0-3.16,0h-14a1.58,1.58,0,0,0-3.17.1v5.93A1.59,1.59,0,0,0,21.06,48.81Z" transform="translate(-19.47 -32.8)"/><path class="cls-1" d="M57.83,47.32h0a1.58,1.58,0,0,0,3.16,0H78.27V41.2H61a1.58,1.58,0,0,0-3.16,0h0v6.12Z" transform="translate(-19.47 -32.8)"/><rect class="cls-1" x="38.36" y="17.9" width="20.44" height="6.12"/><rect class="cls-1" x="38.36" y="27.4" width="20.44" height="6.12"/><path class="cls-1" d="M78.28,41.2v6.12a1.69,1.69,0,0,1,0,3.38h0v6.12h0a1.69,1.69,0,0,1,0,3.38v6.12a7.8,7.8,0,0,0,6.19-12.56A7.8,7.8,0,0,0,78.28,41.2Z" transform="translate(-19.47 -32.8)"/><path class="cls-2" d="M90.61,41.2h-.1l-.1,0a1.58,1.58,0,0,0,.1,3.15V63.15a1.58,1.58,0,0,0-.1,3.15l.1,0H93V41.2Z" transform="translate(-19.47 -32.8)"/><path class="cls-2" d="M98.13,42.79a1.58,1.58,0,0,0-1.4-1.57l-.1,0H94.17V66.32h2.47l.1,0a1.58,1.58,0,0,0-.1-3.15V44.37A1.58,1.58,0,0,0,98.13,42.79Z" transform="translate(-19.47 -32.8)"/><path class="cls-3" d="M127.74,39.71a1.58,1.58,0,0,0-1.58,1.49H118a2.17,2.17,0,0,1-1-1.92h0a1.2,1.2,0,0,0-.42-2.33h-.15V35H118a1.26,1.26,0,0,0,.92.38.91.91,0,1,0,0-1.75A1.26,1.26,0,0,0,118,34h-1.59A1.22,1.22,0,0,0,114,34h-1.59a1.26,1.26,0,0,0-.92-.37.91.91,0,1,0,0,1.75,1.26,1.26,0,0,0,.92-.37H114v1.93h-.15a1.2,1.2,0,0,0-.39,2.34,2.16,2.16,0,0,1-1,1.91h-8.21a1.58,1.58,0,0,0-3.15-.1.83.83,0,0,0,0,.1v6.12a.82.82,0,0,0,0,.1,1.58,1.58,0,0,0,3.15-.1h7.9V67.2h6.12V47.32h7.9a1.58,1.58,0,0,0,3.15.1.82.82,0,0,0,0-.1V41.2a.83.83,0,0,0,0-.1A1.58,1.58,0,0,0,127.74,39.71Z" transform="translate(-19.47 -32.8)"/><path class="cls-3" d="M140.08,47.32h17.28a1.58,1.58,0,0,0,3.17-.1V41.3a1.58,1.58,0,0,0-3.17-.1H140.08a7.81,7.81,0,1,0,0,15.62h12.64a1.69,1.69,0,0,1,0,3.38H132.27v6.12h20.45a7.81,7.81,0,1,0,0-15.62H140.08a1.69,1.69,0,0,1,0-3.38Z" transform="translate(-19.47 -32.8)"/></svg>